<svg width="114" height="114" viewBox="0 0 114 114" fill="none" xmlns="http://www.w3.org/2000/svg">
<circle cx="57" cy="57" r="57" fill="#C03B2C"/>
<path fill-rule="evenodd" clip-rule="evenodd" d="M66.1315 20.7305C63.6829 18.2782 60.4272 16.9277 56.9644 16.9277C53.5016 16.9277 50.2459 18.2782 47.7971 20.7305C45.3485 23.1827 44 26.4429 44 29.9108C44 33.3787 45.3485 36.6391 47.7971 39.0914C49.1584 40.4545 53.5243 44.8412 55.7607 47.9376C56.2784 48.6543 57.7004 48.6813 58.2249 47.9697C60.5084 44.8716 64.7655 40.4593 66.1314 39.0914C68.58 36.6392 69.9285 33.3788 69.9286 29.9109C69.9285 26.4429 68.5801 23.1826 66.1315 20.7305ZM62.8193 29.474C62.8193 32.7075 60.198 35.3288 56.9645 35.3288C53.7309 35.3288 51.1096 32.7075 51.1096 29.474C51.1096 26.2404 53.7309 23.6191 56.9645 23.6191C60.198 23.6191 62.8193 26.2404 62.8193 29.474Z" fill="white"/>
<path fill-rule="evenodd" clip-rule="evenodd" d="M33.6951 56.2139C33.4296 56.2139 33.2144 56.4291 33.2144 56.6946V72.7445C33.2144 85.1202 43.2468 95.1527 55.6225 95.1527C67.1286 95.1527 76.6092 86.4806 77.8848 75.3159H80.8061C86.081 75.3159 90.3571 71.0398 90.3571 65.7649C90.3571 60.49 86.081 56.2139 80.8061 56.2139H33.6951ZM78.0307 62.0914V69.4384H80.8061C82.8349 69.4384 84.4796 67.7937 84.4796 65.7649C84.4796 63.7361 82.8349 62.0914 80.8061 62.0914H78.0307ZM40.6228 73.5149C41.8079 73.3719 42.8817 74.2413 43.0211 75.4569C43.5883 80.4012 47.4579 84.2603 52.2927 84.703L53.2457 84.7903C54.4343 84.8991 55.3118 85.9756 55.2057 87.1947C55.0995 88.4137 54.05 89.3137 52.8614 89.2049L51.9084 89.1176C45.0361 88.4883 39.5355 83.0028 38.7294 75.9747C38.5899 74.7592 39.4376 73.6579 40.6228 73.5149Z" fill="white"/>
</svg>
